<?xml version="1.0" encoding="UTF-8"?>
<svg id="Layer_1" xmlns="http://www.w3.org/2000/svg" version="1.1" viewBox="0 0 200 100">
  <!-- Generator: Adobe Illustrator 29.4.0, SVG Export Plug-In . SVG Version: 2.1.0 Build 152)  -->
  <defs>
    <style>
      .st0 {
        fill: #fff;
      }

      .st1 {
        fill: #f38144;
      }

      .st2 {
        fill: #d1d3d4;
      }
    </style>
  </defs>
  <g>
    <g>
      <path class="st0" d="M9.5,2.5v17.8h4c6.8,0,11.6-.3,14.1-4.9l7.2-12.9h9.4l-7.5,13.5c-2.1,3.8-4.1,6.2-7.6,7.6,4.1,1.1,6.2,3.8,8.8,8.3l7.7,13.5h-9.7l-7.2-12.7c-2.5-4.5-7.6-5.2-15.2-5.2h-4v17.9H.9V2.5h8.6Z"/>
      <path class="st0" d="M80.4,2.5v8.3h-15.1c-3.8,0-5.5,1.8-5.5,5.5v29.1h-8.6V15c0-8.6,3.2-12.5,11.6-12.5h17.6Z"/>
      <path class="st0" d="M133.3,2.5l-25.9,60.2h-9.3l8.1-18.8c-4.9,0-6.6-1.5-8.1-5.3L83.8,2.5h9.1l12.9,32c.6,1.5,1,1.8,2.6,1.8h1.1L124.1,2.5h9.2Z"/>
      <path class="st0" d="M162.4,2.5c10.7,0,15,6,15,14.2v20.2c0,6.2-1.6,8.6-8.9,8.6h-20.1c-10.2,0-14.4-5-14.4-13.1s3.9-12.4,14.5-12.4h20.4v-3.3c0-3.3-1.9-5.9-6.6-5.9h-25.7V2.5h25.8ZM168.9,34.9v-8.1h-20.3c-4.6,0-6.2,1.9-6.2,5s1.7,5.2,6,5.2h18.1c1.7,0,2.4-.7,2.4-2.2Z"/>
    </g>
    <rect class="st1" x="184.2" y="16.1" width="15" height="15"/>
  </g>
  <g>
    <path class="st2" d="M1.9,90.2l4.2-.4c.3,1.4.8,2.4,1.5,3.1s1.8,1,3.1,1,2.4-.3,3.1-.9,1.1-1.3,1.1-2.1-.1-.9-.4-1.3-.8-.7-1.6-.9c-.5-.2-1.7-.5-3.5-.9-2.3-.6-3.9-1.3-4.9-2.1-1.3-1.2-2-2.6-2-4.3s.3-2.1.9-3.1,1.5-1.7,2.7-2.2,2.6-.7,4.2-.7c2.7,0,4.7.6,6.1,1.8s2.1,2.8,2.1,4.7l-4.3.2c-.2-1.1-.6-1.9-1.2-2.4s-1.5-.7-2.7-.7-2.2.3-3,.8c-.5.3-.7.8-.7,1.3s.2.9.6,1.3c.5.5,1.9.9,4,1.4s3.7,1,4.7,1.5,1.8,1.3,2.4,2.2.9,2.1.9,3.4-.3,2.4-1,3.4-1.6,1.9-2.9,2.4-2.8.8-4.7.8c-2.7,0-4.8-.6-6.2-1.9s-2.3-3.1-2.6-5.5Z"/>
    <path class="st2" d="M22.9,86.5c0-2.2.3-4,1-5.5.5-1.1,1.2-2.1,2-2.9s1.8-1.5,2.8-1.9c1.3-.6,2.9-.8,4.6-.8,3.2,0,5.7,1,7.6,2.9s2.8,4.7,2.8,8.2-.9,6.2-2.8,8.1-4.4,2.9-7.5,2.9-5.7-1-7.6-2.9-2.8-4.6-2.8-8ZM27.3,86.4c0,2.4.6,4.3,1.7,5.5s2.5,1.9,4.3,1.9,3.1-.6,4.2-1.9,1.7-3.1,1.7-5.6-.5-4.3-1.6-5.5-2.5-1.8-4.3-1.8-3.2.6-4.3,1.8-1.6,3.1-1.6,5.5Z"/>
    <path class="st2" d="M47.9,97.1v-21.2h4.3v17.6h10.8v3.6h-15.1Z"/>
    <path class="st2" d="M66.7,75.7h4.3v11.6c0,1.8,0,3,.2,3.6.2.9.6,1.6,1.3,2.1s1.6.8,2.9.8,2.2-.3,2.8-.8,1-1.1,1.1-1.8.2-1.9.2-3.6v-11.8h4.3v11.2c0,2.6-.1,4.4-.4,5.4s-.7,2-1.3,2.7-1.5,1.3-2.5,1.7-2.4.7-4.1.7-3.6-.2-4.7-.7-1.9-1.1-2.5-1.8-1-1.5-1.2-2.4c-.3-1.2-.4-3-.4-5.4v-11.4Z"/>
    <path class="st2" d="M93.9,97.1v-17.8h-6.4v-3.6h17v3.6h-6.3v17.8h-4.3Z"/>
    <path class="st2" d="M108,97.1v-21.4h4.3v21.4h-4.3Z"/>
    <path class="st2" d="M116.3,86.5c0-2.2.3-4,1-5.5.5-1.1,1.2-2.1,2-2.9s1.8-1.5,2.8-1.9c1.3-.6,2.9-.8,4.6-.8,3.2,0,5.7,1,7.6,2.9,1.9,2,2.8,4.7,2.8,8.2s-.9,6.2-2.8,8.1c-1.9,2-4.4,2.9-7.5,2.9s-5.7-1-7.6-2.9-2.8-4.6-2.8-8ZM120.8,86.4c0,2.4.6,4.3,1.7,5.5s2.5,1.9,4.3,1.9,3.1-.6,4.2-1.9,1.7-3.1,1.7-5.6-.5-4.3-1.6-5.5-2.5-1.8-4.3-1.8-3.2.6-4.3,1.8-1.6,3.1-1.6,5.5Z"/>
    <path class="st2" d="M141.3,97.1v-21.4h4.2l8.8,14.3v-14.3h4v21.4h-4.3l-8.6-14v14h-4Z"/>
    <path class="st2" d="M162.5,90.2l4.2-.4c.3,1.4.8,2.4,1.5,3.1s1.8,1,3.1,1,2.4-.3,3.1-.9,1.1-1.3,1.1-2.1-.1-.9-.4-1.3-.8-.7-1.6-.9c-.5-.2-1.7-.5-3.5-.9-2.3-.6-3.9-1.3-4.9-2.1-1.3-1.2-2-2.6-2-4.3s.3-2.1.9-3.1,1.5-1.7,2.7-2.2,2.6-.7,4.2-.7c2.7,0,4.7.6,6.1,1.8s2.1,2.8,2.1,4.7l-4.3.2c-.2-1.1-.6-1.9-1.2-2.4s-1.5-.7-2.7-.7-2.2.3-3,.8c-.5.3-.7.8-.7,1.3s.2.9.6,1.3c.5.5,1.9.9,4,1.4s3.7,1,4.7,1.5,1.8,1.3,2.4,2.2.9,2.1.9,3.4-.3,2.4-1,3.4-1.6,1.9-2.9,2.4-2.8.8-4.7.8c-2.7,0-4.8-.6-6.2-1.9s-2.3-3.1-2.6-5.5Z"/>
  </g>
</svg>